<svg
    xmlns="http://www.w3.org/2000/svg"
    xml:space="preserve"
    viewBox="0 0 720 720"
    version="1.1"
    y="0px"
    x="0px"
  >
<path
      d="m427.81 486.7c26.377-14.827 47.384-35.512 62.321-59.506-4.291 3.03-8.777 5.871-13.456 8.501-73.796 41.482-167.25 15.285-208.73-58.511s-15.285-167.25 58.511-208.73c4.679-2.63 9.438-4.986 14.257-7.077-28.262 0.289-56.853 7.483-83.23 22.309-83.675 47.034-113.38 153-66.344 236.67s153 113.38 236.67 66.35z"
      fill="#B3B3B3"
  />
<polygon
      points="406.78 341.39 382.48 354.16 387.12 327.11 367.46 307.94 394.62 304 406.78 279.38 418.92 304 446.09 307.94 426.43 327.11 431.07 354.16"
      fill="#FCEE21"
  />
<polygon
      points="476.64 358.18 464.32 364.66 466.67 350.94 456.7 341.22 470.48 339.22 476.64 326.73 482.8 339.22 496.58 341.22 486.61 350.94 488.96 364.66"
      fill="#FCEE21"
  />
<polygon
      points="329.48 272.9 317.15 279.38 319.5 265.66 309.54 255.94 323.31 253.94 329.48 241.45 335.64 253.94 349.42 255.94 339.44 265.66 341.8 279.38"
      fill="#FCEE21"
  />
</svg>
